<?xml version="1.0" standalone="no"?>
<svg xmlns="http://www.w3.org/2000/svg" viewBox="0 0 145.9 29" width="145.9" height="29"><path fill="#A399E0" fill-rule="nonzero" d="M8.52 21.67L0 21.67L0 1.06L8.26 1.06L8.26 5.04L4.20 5.04L4.20 9.05L8.09 9.05L8.09 12.94L4.20 12.94L4.20 17.66L8.52 17.66L8.52 21.67ZM15.72 15.70L9.67 15.70L9.67 12.98L15.72 12.98L15.72 15.70ZM22.25 21.86Q19.44 21.86 18.19 20.47Q16.94 19.08 16.94 15.98L16.94 15.98L16.94 13.97L21 13.97L21 16.54Q21 18.07 21.98 18.07L21.98 18.07Q22.54 18.07 22.75 17.75Q22.97 17.42 22.97 16.66L22.97 16.66Q22.97 15.65 22.73 14.99Q22.49 14.33 22.12 13.88Q21.74 13.44 20.78 12.50L20.78 12.50L19.01 10.73Q16.94 8.71 16.94 6.26L16.94 6.26Q16.94 3.62 18.16 2.24Q19.37 0.86 21.70 0.86L21.70 0.86Q24.48 0.86 25.70 2.34Q26.93 3.82 26.93 6.96L26.93 6.96L22.73 6.96L22.70 5.54Q22.70 5.14 22.48 4.90Q22.25 4.66 21.84 4.66L21.84 4.66Q21.36 4.66 21.12 4.92Q20.88 5.18 20.88 5.64L20.88 5.64Q20.88 6.65 22.03 7.73L22.03 7.73L24.43 10.03Q25.27 10.85 25.82 11.58Q26.38 12.31 26.71 13.31Q27.05 14.30 27.05 15.67L27.05 15.67Q27.05 18.72 25.93 20.29Q24.82 21.86 22.25 21.86L22.25 21.86ZM33.26 21.86Q30.55 21.86 29.38 20.38Q28.20 18.89 28.20 15.94L28.20 15.94L28.20 8.88Q28.20 6.46 29.59 5.18Q30.98 3.91 33.48 3.91L33.48 3.91Q38.54 3.91 38.54 8.88L38.54 8.88L38.54 10.15Q38.54 12.07 38.50 13.27L38.50 13.27L32.40 13.27L32.40 16.68Q32.40 17.59 32.59 18.11Q32.78 18.62 33.41 18.62L33.41 18.62Q33.89 18.62 34.09 18.34Q34.30 18.05 34.33 17.68Q34.37 17.30 34.37 16.58L34.37 16.58L34.37 14.88L38.54 14.88L38.54 15.89Q38.54 18.96 37.36 20.41Q36.17 21.86 33.26 21.86L33.26 21.86ZM32.38 11.18L34.37 11.18L34.37 8.93Q34.37 7.03 33.43 7.03L33.43 7.03Q32.38 7.03 32.38 8.93L32.38 8.93L32.38 11.18ZM40.06 21.67L40.06 4.10L44.26 4.10L44.26 6.05Q44.57 5.02 45.35 4.45Q46.13 3.89 47.28 3.89L47.28 3.89L47.28 7.39Q46.39 7.39 45.32 7.64Q44.26 7.90 44.26 8.23L44.26 8.23L44.26 21.67L40.06 21.67ZM55.42 21.67L50.54 21.67L47.74 4.10L51.94 4.10L52.80 12.98L52.94 15.84L53.11 12.96L54.07 4.10L58.27 4.10L55.42 21.67ZM63.55 2.93L59.35 2.93L59.35 0L63.55 0L63.55 2.93ZM63.55 21.67L59.35 21.67L59.35 4.10L63.55 4.10L63.55 21.67ZM70.49 21.86Q67.61 21.86 66.34 20.40Q65.06 18.94 65.06 15.91L65.06 15.91L65.06 10.49Q65.06 8.21 65.56 6.78Q66.05 5.35 67.21 4.63Q68.38 3.91 70.44 3.91L70.44 3.91Q72.70 3.91 74.11 5.09Q75.53 6.26 75.53 8.38L75.53 8.38L75.53 11.06L71.26 11.06L71.26 8.59Q71.26 7.90 71.06 7.52Q70.87 7.15 70.32 7.15L70.32 7.15Q69.29 7.15 69.29 8.62L69.29 8.62L69.29 17.14Q69.29 17.74 69.54 18.16Q69.79 18.58 70.30 18.58L70.30 18.58Q70.80 18.58 71.05 18.17Q71.30 17.76 71.28 17.11L71.28 17.11L71.26 14.16L75.53 14.16L75.53 17.23Q75.53 19.39 74.12 20.63Q72.72 21.86 70.49 21.86L70.49 21.86ZM81.91 21.86Q79.20 21.86 78.02 20.38Q76.85 18.89 76.85 15.94L76.85 15.94L76.85 8.88Q76.85 6.46 78.24 5.18Q79.63 3.91 82.13 3.91L82.13 3.91Q87.19 3.91 87.19 8.88L87.19 8.88L87.19 10.15Q87.19 12.07 87.14 13.27L87.14 13.27L81.05 13.27L81.05 16.68Q81.05 17.59 81.24 18.11Q81.43 18.62 82.06 18.62L82.06 18.62Q82.54 18.62 82.74 18.34Q82.94 18.05 82.98 17.68Q83.02 17.30 83.02 16.58L83.02 16.58L83.02 14.88L87.19 14.88L87.19 15.89Q87.19 18.96 86.00 20.41Q84.82 21.86 81.91 21.86L81.91 21.86ZM81.02 11.18L83.02 11.18L83.02 8.93Q83.02 7.03 82.08 7.03L82.08 7.03Q81.02 7.03 81.02 8.93L81.02 8.93L81.02 11.18ZM93.53 21.86Q88.32 21.86 88.32 16.58L88.32 16.58L88.34 15.19L92.54 15.19L92.57 17.26Q92.57 17.88 92.81 18.20Q93.05 18.53 93.60 18.53L93.60 18.53Q94.44 18.53 94.44 17.16L94.44 17.16Q94.44 16.15 94.04 15.58Q93.65 15 92.78 14.35L92.78 14.35L90.55 12.62Q89.40 11.74 88.90 10.79Q88.39 9.84 88.39 8.11L88.39 8.11Q88.39 6.77 89.10 5.82Q89.81 4.87 90.98 4.39Q92.16 3.91 93.60 3.91L93.60 3.91Q98.71 3.91 98.71 9L98.71 9L98.71 9.34L94.37 9.34L94.37 8.66Q94.37 8.04 94.16 7.60Q93.96 7.15 93.48 7.15L93.48 7.15Q93.05 7.15 92.82 7.40Q92.59 7.66 92.59 8.09L92.59 8.09Q92.59 9.05 93.34 9.58L93.34 9.58L95.93 11.47Q97.32 12.50 98.06 13.72Q98.81 14.93 98.81 16.78L98.81 16.78Q98.81 19.22 97.42 20.54Q96.02 21.86 93.53 21.86L93.53 21.86Z" transform="translate(0, 3.568)"></path><line x1="107.808" y1="2%" x2="107.808" y2="98%" stroke="#A399E0" stroke-linecap="round"></line><g fill="#707070" color="#707070" transform="translate(116.808 0) scale(0.29)"><svg width="100.0" height="100.0" x="0.0" y="0.0" viewBox="0 0 100 100"><g><path d="M97.964,28.134l-1.412-1.41l0.706-0.706l-5.643-5.642l-0.705,0.705L71.866,2.037C70.509,0.679,68.718,0,66.929,0   c-1.791,0-3.58,0.679-4.938,2.037l-2.117,2.115l-0.705-0.705l-3.526,3.526l0.705,0.705l-2.821,2.822l-0.705-0.705l-2.116,2.116   l0.705,0.705l-3.878,3.879l-0.706-0.705l-2.116,2.116l0.705,0.705L2.037,61.99c-2.715,2.716-2.715,7.16,0,9.876l26.098,26.097   c1.357,1.358,3.147,2.037,4.938,2.037s3.58-0.679,4.937-2.037L97.964,38.01C100.679,35.294,100.679,30.85,97.964,28.134z    M96.553,36.599L36.598,96.553c-0.937,0.936-2.189,1.452-3.526,1.452s-2.59-0.517-3.527-1.452L3.448,70.456   c-1.945-1.945-1.945-5.109,0-7.055L63.401,3.447c0.937-0.936,2.189-1.452,3.527-1.452c1.337,0,2.59,0.517,3.526,1.452   l26.097,26.097C98.497,31.489,98.497,34.653,96.553,36.599z"></path><path d="M12.264,56.701l31.035,31.034l45.847-45.847L58.111,10.854L12.264,56.701z M43.299,84.915L15.085,56.701l43.026-43.026   l28.214,28.214L43.299,84.915z"></path><path d="M79.271,25.666c0.485,0.485,1.124,0.727,1.764,0.727s1.278-0.241,1.763-0.727l0.001-0.001c0.97-0.969,0.97-2.557,0-3.526   l-4.938-4.938c-0.484-0.485-1.123-0.727-1.763-0.727c-0.639,0-1.278,0.241-1.763,0.727l-0.001,0.001   c-0.97,0.97-0.97,2.558,0.001,3.526L79.271,25.666z M75.744,18.613l0.014-0.014c0.122-0.112,0.265-0.13,0.34-0.13   c0.079,0,0.229,0.019,0.353,0.142l4.938,4.939c0.125,0.123,0.143,0.273,0.143,0.352s-0.018,0.228-0.143,0.352l-0.013,0.014   c-0.122,0.113-0.265,0.131-0.34,0.131c-0.079,0-0.229-0.019-0.353-0.143l-4.938-4.938c-0.125-0.124-0.143-0.274-0.143-0.352   C75.603,18.887,75.62,18.737,75.744,18.613z"></path><path d="M21.433,74.077c-1.148,0-2.297,0.438-3.173,1.315c-1.753,1.752-1.753,4.595,0,6.348c0.876,0.876,2.025,1.314,3.174,1.314   s2.297-0.438,3.174-1.314c1.753-1.753,1.753-4.595,0-6.348C23.731,74.516,22.582,74.077,21.433,74.077z M23.196,80.329   c-0.471,0.472-1.097,0.73-1.763,0.73s-1.292-0.259-1.764-0.731c-0.47-0.471-0.73-1.096-0.729-1.762c0-0.666,0.259-1.292,0.73-1.764   c0.471-0.471,1.097-0.73,1.763-0.73c0.666,0,1.292,0.26,1.764,0.73c0.471,0.472,0.731,1.098,0.731,1.764   S23.668,79.857,23.196,80.329z"></path></g></svg></g></svg>